# xmcd CD database file
#
# Track frame offsets:
#	150
#	18344
#	33395
#	50243
#	67539
#	90127
#	105729
#	124023
#	140046
#	159930
#	174675
#	192935
#	209254
#	226972
#	250269
#	262697
#	279417
#	291727
#	309780
#	327133
#	332976
#
# Disc length: 4667 seconds
#
# Revision: 3
# Processed by: cddbd v1.5.1PL2 Copyright (c) Steve Scherf et al.
# Submitted via: CDex 1.51
#
DISCID=24123915
DTITLE=Various Artist - Keep it country Vol. 71
DYEAR=2006
DGENRE=Country
TTITLE0=Jace Everett - Nowhere In The Neighborhood
TTITLE1=Toby Keith - A Little Too Late
TTITLE2=Carrie Underwood - Don't Forget To Remember Me
TTITLE3=Craig Hand - Direct Connect
TTITLE4=Tim Mcgraw - Beautiful People
TTITLE5=Sara Evans - Coalmine
TTITLE6=AARON PRITCHETT - Big Wheel
TTITLE7=The Lost Trailers - Call Me Crazy
TTITLE8=Garth Brooks - That Girl is A Cowboy
TTITLE9=Shedaisy - I'm Taking The Wheel
TTITLE10=Rascal Flatts - Ellsworth
TTITLE11=Rio Grand - Kill Me Now
TTITLE12=Phil Vassar - The Last Day Of My Life
TTITLE13=Brooks and Dunn - Believe (Live Form The Dr. Phil Show)
TTITLE14=Ray Stevens - The New Battle Of New Orleans
TTITLE15=Ronnie Milsap - Local Girls
TTITLE16=Joe Patrick - I'll Know When I Get There (Single Version)
TTITLE17=Diamond Rio - God Only Cries
TTITLE18=Miranda Lambert - New Strings
TTITLE19=Alan Jackson - Are You Washed In The Blood
TTITLE20=Loretta Lynn - Van Lear Rose
EXTD=YEAR: 2006
EXTT0=
EXTT1=
EXTT2=
EXTT3=
EXTT4=
EXTT5=
EXTT6=
EXTT7=
EXTT8=
EXTT9=
EXTT10=
EXTT11=
EXTT12=
EXTT13=
EXTT14=
EXTT15=
EXTT16=
EXTT17=
EXTT18=
EXTT19=
EXTT20=
PLAYORDER=
